<svg width="256" height="256" viewBox="0 0 256 256" fill="none" xmlns="http://www.w3.org/2000/svg">
<g filter="url(#filter0_i_618_378)">
<mask id="path-1-inside-1_618_378" fill="white">
<path d="M0 38C0 17.0132 17.0132 0 38 0H218C238.987 0 256 17.0132 256 38V218C256 238.987 238.987 256 218 256H38C17.0132 256 0 238.987 0 218V38Z"/>
</mask>
<path d="M0 38C0 17.0132 17.0132 0 38 0H218C238.987 0 256 17.0132 256 38V218C256 238.987 238.987 256 218 256H38C17.0132 256 0 238.987 0 218V38Z" fill="#DBFEE6"/>
<path fill-rule="evenodd" clip-rule="evenodd" d="M83.1382 69H172.861V78.1385H83.1382V69ZM83.1382 177V167.862H74V78.1385H83.1385L83.1385 158.723L92.2766 158.723L92.2766 177H101V167.862H110.138V186.139H101V186.138L92.2766 186.138H83.1382V177ZM137.139 158.723H137.139V167.862H137.139V177H145.861V167.862H155V177H155V186.138H155V186.139H145.861V186.138L137.139 186.138L128 186.138V177V167.862H110.139V158.723H128V158.723L137.139 158.723V158.723ZM172.862 158.723H155V167.862L172.862 167.862H182L182 167.862V158.723H182V78.1385H172.862V158.723Z" fill="#342E2E"/>
<rect x="110.15" y="127.5" width="27" height="9.13846" transform="rotate(-90 110.15 127.5)" fill="#342E2E"/>
<rect x="155" y="127.6" width="27" height="9.13846" transform="rotate(-90 155 127.6)" fill="#342E2E"/>
<path d="M0 0H256H0ZM257 218C257 239.539 239.539 257 218 257H39C17.4609 257 0 239.539 0 218C0 238.435 17.0132 255 38 255H218C238.435 255 255 238.435 255 218H257ZM0 256V0V256ZM218 0C239.539 0 257 17.4609 257 39V218C257 239.539 239.539 257 218 257V255C238.435 255 255 238.435 255 218V38C255 17.0132 238.435 0 218 0Z" fill="#BFBFBF" mask="url(#path-1-inside-1_618_378)"/>
</g>
<defs>
<filter id="filter0_i_618_378" x="0" y="0" width="260" height="260" filterUnits="userSpaceOnUse" color-interpolation-filters="sRGB">
<feFlood flood-opacity="0" result="BackgroundImageFix"/>
<feBlend mode="normal" in="SourceGraphic" in2="BackgroundImageFix" result="shape"/>
<feColorMatrix in="SourceAlpha" type="matrix" values="0 0 0 0 0 0 0 0 0 0 0 0 0 0 0 0 0 0 127 0" result="hardAlpha"/>
<feOffset dx="4" dy="4"/>
<feGaussianBlur stdDeviation="3"/>
<feComposite in2="hardAlpha" operator="arithmetic" k2="-1" k3="1"/>
<feColorMatrix type="matrix" values="0 0 0 0 0 0 0 0 0 0 0 0 0 0 0 0 0 0 0.18 0"/>
<feBlend mode="normal" in2="shape" result="effect1_innerShadow_618_378"/>
</filter>
</defs>
</svg>
