<svg width="65" height="65" viewBox="0 0 65 65" fill="none" xmlns="http://www.w3.org/2000/svg">
    <path fill-rule="evenodd" clip-rule="evenodd"
        d="M32.5 65C50.4493 65 65 50.4492 65 32.5C65 14.5508 50.4493 0 32.5 0C14.5507 0 0 14.5508 0 32.5C0 50.4492 14.5507 65 32.5 65ZM27.4891 51H24.9502H22.2445V43.4517H19.7056H17.1174H17V17.7056H19.7056V15H45.6112V17.7056H48.3168V40.7461V43.4517H45.6112H43.1733V51H40.8607H40.4677H40.4489H38.0298H37.7432H35.3241V43.4517H30.1946V51H27.6558H27.4891ZM27.4891 35.6704H30.1947V27.9507H27.4891V35.6704ZM40.4677 35.6704H43.1733V27.9507H40.4677V35.6704Z"
        fill="#6DDB91" />
</svg>